<svg xmlns="http://www.w3.org/2000/svg" viewBox="0 0 32 32" width="32" height="32">
  <defs>
    <linearGradient id="berry" x1="0" y1="0" x2="1" y2="1">
      <stop offset="0" stop-color="#e01466"/>
      <stop offset="1" stop-color="#ffa9b9"/>
    </linearGradient>
  </defs>
  <rect width="32" height="32" rx="8" fill="url(#berry)"/>
  <svg x="3" y="3" width="26" height="26" viewBox="0 -960 960 960" preserveAspectRatio="xMidYMid meet">
    <path fill="#fff7f7" d="m835-252-99-34 78-215 85 175q14 27-12 55t-52 19Zm-251-38 43-374q2-15 13.5-20.5t27.5-.5l100 37q14 6 18.5 18t-.5 26L673-290h-89Zm-296 0L175-604q-5-14-.5-26.5T193-648l100-37q14-6 26.5-.5T334-664l42 374h-88Zm-172 38q-26 8-47-19.5T62-326l86-175 77 215-109 34Zm320-38-48-430q-2-17 9.5-28.5T426-760h108q17 0 28.5 11.5T572-720l-48 430h-88Z"/>
  </svg>
</svg>
